<?xml version="1.0" standalone="no"?>
<!DOCTYPE svg PUBLIC "-//W3C//DTD SVG 20010904//EN"
 "http://www.w3.org/TR/2001/REC-SVG-20010904/DTD/svg10.dtd">
<svg version="1.0" xmlns="http://www.w3.org/2000/svg"
 width="240.000000pt" height="200.000000pt" viewBox="0 0 240.000000 200.000000"
 preserveAspectRatio="xMidYMid meet">
<style>
    @media (prefers-color-scheme:dark) {
        path {
            fill: white
        }
    }
</style>
<metadata>
Created by potrace 1.10, written by Peter Selinger 2001-2011
</metadata>
<g transform="translate(0.000000,200.000000) scale(0.100000,-0.100000)"
fill="#000000" stroke="none">
<path d="M1980 1961 c-25 -9 -126 -68 -225 -131 -531 -334 -639 -379 -808
-335 -70 18 -159 63 -331 165 -204 121 -251 142 -327 148 -52 3 -73 0 -105
-16 -109 -56 -139 -159 -89 -308 46 -138 213 -450 473 -884 235 -392 313 -494
433 -556 49 -26 63 -29 154 -29 91 0 105 3 155 29 100 52 171 133 335 381 339
512 620 1003 674 1179 51 166 2 309 -126 363 -45 19 -159 16 -213 -6z m183
-65 c42 -17 83 -66 98 -116 15 -51 0 -134 -46 -241 -118 -274 -695 -1209 -832
-1347 -74 -74 -165 -116 -241 -110 -112 8 -205 78 -308 233 -174 261 -543 898
-625 1082 -45 100 -72 199 -65 237 10 52 77 106 133 106 38 0 154 -57 323
-157 171 -102 218 -125 305 -153 198 -62 331 -15 809 287 304 193 362 216 449
179z"/>
</g>
</svg>
